<svg width="444" height="444" viewBox="0 0 444 444" fill="none" xmlns="http://www.w3.org/2000/svg">
<path fill-rule="evenodd" clip-rule="evenodd" d="M233.165 22.625C233.165 22.969 233.587 23.25 234.104 23.25C234.619 23.25 235.041 22.969 235.041 22.625C235.041 22.281 234.619 22 234.104 22C233.587 22 233.165 22.281 233.165 22.625ZM213.157 24.225C208.446 25.385 206.736 25.561 204.895 25.076C201.117 24.081 194.592 25.931 196.628 27.42C199.174 29.28 211.729 28.22 220.699 25.388C229.8 22.514 223.837 21.594 213.157 24.225ZM293.191 25.438C293.191 25.953 293.473 26.375 293.817 26.375C294.161 26.375 294.442 25.953 294.442 25.438C294.442 24.922 294.161 24.5 293.817 24.5C293.473 24.5 293.191 24.922 293.191 25.438ZM274.72 26.417C274.493 26.783 274.464 27.24 274.656 27.431C275.171 27.945 276.934 27.143 276.934 26.395C276.934 25.546 275.248 25.563 274.72 26.417ZM260.052 28.287C260.052 28.995 260.333 29.4 260.677 29.188C261.021 28.975 261.303 28.396 261.303 27.901C261.303 27.405 261.021 27 260.677 27C260.333 27 260.052 27.579 260.052 28.287ZM251.379 30.57C247.515 32.898 240.258 33.332 236.082 31.485C232.901 30.078 232.379 30.421 234.572 32.474C236.701 34.468 238.757 35.045 249.692 36.717C281.052 41.513 300.638 47.662 319.051 58.494C327.144 63.255 327.128 63.859 319.01 60.038C253.956 29.419 189.48 29.817 142.662 61.126C135.21 66.109 135.507 66.132 134.665 60.52C134.03 56.292 133.847 56.417 119.917 70.61C96.4119 94.56 84.5038 109.883 75.5749 127.668C67.9486 142.86 62.9214 161.58 65.7176 164.375C66.7821 165.439 67.4684 165.304 67.4684 164.031C67.4694 162.177 70.9919 155.555 73.1949 153.266L75.2848 151.095L75.4718 153.629C75.716 156.94 73.8671 161.784 69.8604 168.33C60.9205 182.937 59.775 188.165 58.0963 222C56.8608 246.906 55.012 251.696 33.7387 285.086C27.1219 295.472 21.8416 304.101 22.0036 304.263C22.1657 304.425 28.8556 295.409 36.8691 284.227C44.8836 273.044 51.5094 263.965 51.5955 264.05C51.6805 264.136 51.3504 266.874 50.8602 270.134C49.6366 278.281 49.6666 292.824 50.9042 291.063C53.5063 287.357 53.4103 287.216 53.2052 294.436C52.853 306.827 55.5952 322.012 60.3113 333.789C62.9704 340.431 63.4926 340.97 68.5328 342.269C75.748 344.129 82.5989 347.823 87.9933 352.762C91.908 356.345 91.862 355.276 87.8582 349.597C83.6474 343.625 83.6794 343.875 87.1239 343.875C96.478 343.875 100.758 337.4 101.233 322.529L101.546 312.745L107.134 321.74C118.092 339.379 133.507 358.549 149.267 374.135C158.266 383.036 158.846 383.218 163.713 378.667C168.479 374.211 166.781 373.416 187.455 389.791C204.254 403.096 203.638 402.075 196.398 404.619C186.342 408.152 173.85 406.03 157.145 397.95C146.861 392.975 144.699 390.668 147.21 387.349C150.216 383.377 145.946 374.512 141.021 374.502C140.062 374.5 140.251 374.938 142.08 376.963C144.657 379.813 145.434 382.861 144.39 386.022C143.427 388.938 142.811 388.877 135.311 385.134C118.428 376.708 102.778 359.081 97.9866 343.096C96.9262 339.559 96.3469 340.28 96.9842 344.344C101.89 375.63 143.803 403.504 201.902 414.12C236.771 420.491 244.389 420.165 275.257 410.984C295.249 405.037 294.189 405.164 292.879 408.875C291.655 412.342 291.974 412.592 293.872 409.656C295.775 406.711 299.839 403.973 306.121 401.402C322.457 394.718 327.207 391.346 352.108 368.764C399.278 325.984 419.732 286.073 420.199 235.904C420.247 230.835 420.671 223.756 421.141 220.172C422.523 209.66 422.289 205.043 420.064 198.875C414.805 184.297 414.603 182.787 415.724 166.457C417.185 145.144 410.756 132 398.869 132C396.69 132 396.376 131.675 388.758 121.531C366.941 92.485 341.805 67.302 311.752 44.382C301.848 36.828 301.863 37.123 312.066 50.519C312.362 50.908 308.869 49.693 304.304 47.821C292.791 43.098 277.772 38.1 266.368 35.197C257.105 32.84 256.708 32.673 255.924 30.811C254.947 28.487 254.846 28.482 251.379 30.57ZM184.248 31.717L180.702 33.934L179.422 32.655C177.593 30.827 175.399 31.065 171.357 33.531C169.109 34.902 165.459 36.279 161.323 37.315C154.789 38.952 153.137 39.671 146.969 43.562C142.662 46.279 138.632 47.124 132.44 46.608C126.579 46.119 124.649 46.942 126.85 48.992C128.756 50.766 128.401 53.145 125.618 57.241C122.877 61.273 121.876 66.071 124.301 63.545C127.528 60.186 131.246 53.733 131.247 51.492V49.188H137.117H142.985L152.591 44.373C158.927 41.198 163.253 39.423 165.298 39.159C167.003 38.939 170.302 37.801 172.629 36.63C176.873 34.493 179.609 33.959 180.33 35.125C181.185 36.507 194.398 31.726 194.398 30.034C194.398 28.446 187.705 29.556 184.248 31.717ZM221.285 35.75C221.285 36.094 221.707 36.375 222.224 36.375C222.739 36.375 223.161 36.094 223.161 35.75C223.161 35.406 222.739 35.125 222.224 35.125C221.707 35.125 221.285 35.406 221.285 35.75ZM304.446 36.063C304.446 36.578 304.727 37 305.072 37C305.416 37 305.697 36.578 305.697 36.063C305.697 35.547 305.416 35.125 305.072 35.125C304.727 35.125 304.446 35.547 304.446 36.063ZM299.444 40.048C299.444 40.778 299.709 41.375 300.032 41.375C301.116 41.375 301.316 40.275 300.375 39.494C299.6 38.852 299.444 38.945 299.444 40.048ZM308.485 39.542C308.258 39.908 308.223 40.358 308.406 40.542C308.854 40.989 310.074 40.201 310.074 39.463C310.074 38.664 308.994 38.718 308.485 39.542ZM183.769 40.385C183.769 40.93 184.214 41.375 184.759 41.375C185.304 41.375 185.638 41.041 185.502 40.633C185.114 39.474 183.769 39.282 183.769 40.385ZM238.356 44.227L240.982 45.107L238.481 44.817C237.105 44.657 234.291 44.107 232.228 43.594L228.476 42.661L232.103 43.005C234.099 43.194 236.912 43.744 238.356 44.227ZM248.172 44.188C248.172 44.703 247.75 45.125 247.234 45.125C246.258 45.125 245.994 44.386 246.713 43.667C247.433 42.948 248.172 43.212 248.172 44.188ZM203.479 44.476C203.017 45.224 199.297 45.956 197.744 45.603C197.028 45.44 197.658 45.087 199.401 44.675C203.122 43.794 203.926 43.755 203.479 44.476ZM180.017 46.688C180.017 48.96 176.982 50.553 170.401 51.734C167.111 52.325 167.556 50.902 171.218 49.124C172.706 48.402 174.183 47.348 174.5 46.781C175.273 45.4 180.017 45.32 180.017 46.688ZM120.741 47.125C119.724 48.142 119.793 49.5 120.863 49.5C121.682 49.5 122.492 48.231 122.492 46.949C122.492 46.147 121.633 46.234 120.741 47.125ZM123.529 51.797C122.673 52.653 123.167 53.875 124.368 53.875C125.056 53.875 125.619 53.628 125.619 53.327C125.619 52.507 124.002 51.324 123.529 51.797ZM256.926 52.006C309.408 55.91 340.946 72.553 368.834 111.063C389.742 139.932 407.849 188.389 406.085 210.75C405.726 215.299 403.634 226.813 403.063 227.384C402.96 227.487 402.868 223.014 402.859 217.442C402.842 207.203 401.96 201.581 401.122 206.375C400.912 207.578 399.322 221.219 397.591 236.688C393.962 269.089 393.691 270.738 391.57 273.256C387.792 277.744 387.698 276.509 390.125 254.188C393.008 227.671 392.136 215.65 385.351 188.33C375.921 150.355 373.414 145.148 354.777 124.819C350.992 120.69 345.515 114.359 342.606 110.75C330.216 95.379 330.959 95.767 290.69 83.667C278.826 80.102 268.486 76.984 267.711 76.738C264.477 75.71 266.673 77.602 271.463 79.972C278.201 83.305 283.09 84.995 296.095 88.486C324.573 96.13 333.585 102.51 356.687 131.375C373.051 151.821 384.194 179.398 377.013 181.677C375.937 182.018 376.056 182.414 378.378 186.234C387.409 201.094 390.075 221.197 385.122 237.102C383.61 241.962 384.565 241.774 386.437 236.844L387.92 232.938L388.494 238.25C389.582 248.338 387.357 258.017 382.575 263.995C380.486 266.606 380.361 267 381.622 267C384.816 267 386.084 273.244 383.51 276.301C382.211 277.843 381.989 278.599 382.317 280.349C384.013 289.384 378.165 299.61 370.905 300.305C367.766 300.606 366.348 301.632 366.348 303.602C366.348 305.839 367.238 305.9 369.83 303.841C372.765 301.509 373.58 302.352 373.015 307.131C371.99 315.784 364.937 323.611 357.026 324.876C355.619 325.101 354.468 325.51 354.468 325.785C354.468 326.827 357.837 328.875 359.554 328.875C365.101 328.875 353.965 345.02 344.906 350.113C340.86 352.388 340.613 353.467 344.07 353.758C346.309 353.947 346.708 353.637 354.964 345.287C366.475 333.647 372.939 329.521 374.264 332.97C376.133 337.841 357.22 361.027 349.595 363.213C345.788 364.304 340.968 360.024 342.591 356.994C343.412 355.46 343.048 355.439 337.652 356.711C335.453 357.229 333.571 357.57 333.47 357.47C333.37 357.369 332.747 356.025 332.084 354.482C328.966 347.211 323.247 344.08 318.019 346.782C315.831 347.913 316.185 348.283 320.302 349.172C327.608 350.75 335.795 367.247 333.87 376.512C331.798 386.488 321.345 391.442 314.69 385.602L312.575 383.746V386.234C312.575 387.675 312.967 389.047 313.506 389.494C314.017 389.919 314.304 390.482 314.141 390.745C313.848 391.218 302.831 397.625 302.309 397.625C302.16 397.625 303.307 394.039 304.857 389.656C318.625 350.729 316.111 319.572 297.587 299.564C294.137 295.837 293.915 296.585 296.936 301.752C301.538 309.621 305.758 321.536 306.544 328.875L306.912 332.313L305.663 328.25C297.234 300.852 286.904 288.019 269.744 283.632C255.694 280.04 231.493 280.809 213.652 285.414C206.874 287.163 206.816 287.302 217.179 277.009C225.894 268.355 225.789 268.514 223.161 267.938C220.904 267.442 220.923 267.674 222.841 263.89C234.658 240.581 226.319 208.217 204.403 192.328C200 189.137 199.102 188.056 199.655 186.616C201.131 182.767 175.939 176.487 161.884 177.201C115.109 179.576 89.4799 229.89 117.38 264.569C126.31 275.668 138.318 285.346 141.599 284.087C143.126 283.501 142.631 282 140.909 282C138.965 282 136.248 279.424 136.248 277.582C136.248 276.279 136.304 276.268 137.837 277.272C138.711 277.844 140.658 278.968 142.165 279.768C144.035 280.762 144.7 281.427 144.263 281.864C143.204 282.922 156.136 296.024 160.069 297.879C163.828 299.652 157.43 290.338 151.663 285.641C149.891 284.198 148.188 282.803 147.88 282.542C147.572 282.281 148.698 282.525 150.381 283.085C159.513 286.12 177.544 283.821 186.895 278.429C203.696 268.743 215.008 247.623 215.028 225.906C215.033 221.37 215.426 221.172 218.184 224.312C227.488 234.903 224.129 255.215 209.446 277.164C204.109 285.143 200.743 288.381 197.944 288.23C193.745 288.004 193.145 288.314 187.401 293.674C167.433 312.308 146.982 316.364 130.033 305.051C123.078 300.408 122.487 299.25 105.61 257.13C89.711 217.452 89.9521 217.983 88.9007 220.281C87.9383 222.384 85.9804 215.406 86.3766 211.284C86.7467 207.436 86.0294 207.41 84.5588 211.219C83.7754 213.247 83.4433 215.623 83.5103 218.719C83.5974 222.81 83.4903 223.25 82.4029 223.25C80.1759 223.25 79.6867 220.715 80.8102 214.991C82.3198 207.298 83.2092 198.501 82.9781 193.563L82.773 189.188L80.9972 192.938C76.4793 202.478 75.3108 215.589 77.9989 226.581C79.9568 234.587 79.8267 236.467 77.1026 239.481C74.6045 242.245 73.7241 245.833 74.9356 248.316C75.6399 249.76 75.6309 249.768 74.6655 248.563C70.6037 243.484 69.9194 226.802 73.1228 210.944C74.8946 202.173 92.6773 133.763 94.318 129.409C96.3999 123.88 99.8244 119.124 108.589 109.589C116.953 100.49 121.696 94.042 126.263 85.561C128.982 80.511 129.134 79.017 126.71 81.144C125.938 81.822 122.968 84.446 120.11 86.975C115.364 91.177 114.952 91.417 115.339 89.756C116.981 82.704 122.978 78.277 140.826 70.941C177.193 55.994 218.96 49.182 256.926 52.006ZM330.864 54.318C329.782 54.714 329.878 56.375 330.984 56.375C332.12 56.375 332.9 55.176 332.185 54.524C331.888 54.253 331.294 54.16 330.864 54.318ZM253.302 59.231C252.233 59.979 251.102 60.112 248.533 59.791C243.945 59.219 241.901 60.273 245.045 61.59C249.309 63.375 253.074 63.559 255.075 62.08C256.475 61.045 257.188 60.884 258.305 61.351C263.404 63.481 299.132 67.877 299.132 66.375C299.132 65.649 298.286 65.431 295.38 65.41C293.115 65.393 290.848 64.966 289.66 64.333C286.109 62.44 268.366 59.873 261.217 60.217C259.189 60.315 258.002 60.04 257.265 59.303C255.955 57.994 255.091 57.979 253.302 59.231ZM322.205 77.507C323.972 80.921 329.224 84.941 330.393 83.773C331.096 83.07 328.744 80.204 325.745 78.11C321.708 75.29 320.996 75.169 322.205 77.507ZM97.1352 85.804C96.9041 86.178 97.0402 86.809 97.4364 87.205C98.1357 87.904 99.3212 86.904 99.3472 85.594C99.3622 84.872 97.6085 85.039 97.1352 85.804ZM331.373 86.219C331.395 86.477 332.732 87.776 334.343 89.106C338.037 92.154 344.211 98.088 349.466 103.642C355.913 110.455 358.845 112.482 358.845 110.125C358.845 108.697 359.081 108.623 360.762 109.522C361.829 110.093 361.971 109.955 361.971 108.349C361.971 105.985 360.688 104.978 357.971 105.212C355.928 105.388 355.397 104.99 349.838 99.099C340.934 89.665 331.082 82.792 331.373 86.219ZM358.847 112.735C358.851 114.061 361.165 117.484 362.564 118.232C364.376 119.202 364.301 117.233 362.418 114.441C360.953 112.266 358.843 111.259 358.847 112.735ZM399.252 117.336C398.849 118.385 400.273 119.236 401.333 118.581C401.693 118.358 401.989 117.771 401.989 117.276C401.989 116.07 399.72 116.12 399.252 117.336ZM365.098 118.393C365.098 122.996 370.383 126.706 373.833 124.524C375.029 123.768 374.852 123.647 370.426 122.194C367.286 121.163 366.685 120.734 366.674 119.507C366.667 118.704 366.309 117.929 365.879 117.784C365.45 117.639 365.098 117.913 365.098 118.393ZM402.694 122.299C399.092 126.203 399.317 127.465 403.252 125.431C405.272 124.387 406.366 122.757 406.366 120.791C406.366 118.866 405.551 119.2 402.694 122.299ZM370.725 128.316C370.725 128.697 371.434 129.565 372.301 130.246C374.459 131.943 375.282 133.721 377.6 141.691C378.699 145.471 381.293 152.219 383.362 156.688C385.432 161.156 388.095 167.766 389.278 171.375C391.525 178.226 392.786 180.75 393.961 180.75C395.06 180.75 394.182 174.025 392.617 170.438C391.865 168.719 391.093 165.806 390.899 163.965C390.646 161.573 390.113 160.187 389.03 159.104C387.834 157.909 387.601 157.199 387.923 155.733C388.233 154.329 388.108 153.875 387.411 153.875C386.219 153.875 385.633 152.301 386.113 150.388C386.423 149.152 386.255 148.875 385.196 148.875C383.604 148.875 382.605 147.138 382.605 144.367C382.605 143.218 381.598 140.176 380.366 137.608C378.862 134.47 378.202 132.298 378.356 130.984C378.555 129.277 378.337 128.94 376.643 128.327C374.154 127.427 370.725 127.421 370.725 128.316ZM398.351 141.919C398.163 147.165 398.311 147.92 401.078 155.827C406.786 172.139 408.16 176.751 408.909 182.103C409.992 189.848 409.046 191.317 407.565 184.188C406.923 181.094 404.561 172.698 402.316 165.53C397.194 149.173 394.823 138.121 396.153 136.792C397.926 135.02 398.546 136.467 398.351 141.919ZM407.304 142.634C407.304 143.77 406.925 144.241 405.893 144.388C404.193 144.629 403.383 143.02 404.519 141.653C405.69 140.242 407.304 140.81 407.304 142.634ZM419.652 144.031C419.795 144.461 420.289 144.813 420.747 144.813C421.205 144.813 421.698 144.461 421.841 144.031C421.996 143.567 421.553 143.25 420.747 143.25C419.94 143.25 419.497 143.567 419.652 144.031ZM55.8203 147.691C51.7626 152.845 48.7102 157.359 48.7102 158.206C48.7102 160.043 52.875 158.265 53.7084 156.072C54.0265 155.236 54.8899 154.507 55.6983 154.392C56.9198 154.217 57.2839 153.51 58.2224 149.5C59.697 143.203 59.4809 143.04 55.8203 147.691ZM50.7111 147.75C49.6016 148.859 49.7677 150.333 50.9502 149.879C51.4934 149.671 52.0567 149.5 52.2007 149.5C52.3438 149.5 52.4619 148.938 52.4619 148.25C52.4619 146.833 51.8136 146.648 50.7111 147.75ZM405.148 148.563C405.099 149.49 403.7 149.32 403.375 148.347C403.2 147.821 403.486 147.587 404.139 147.722C404.712 147.84 405.166 148.219 405.148 148.563ZM408.694 155.377C408.428 157.698 406.675 158.332 406.04 156.336C405.8 155.579 405.96 154.319 406.402 153.496C407.487 151.468 408.998 152.708 408.694 155.377ZM34.9062 158.34C34.0519 159.936 34.5011 164.136 35.6796 165.565C36.4159 166.459 36.555 166.286 36.8301 164.135C37.5294 158.662 36.4589 155.439 34.9062 158.34ZM91.854 158.927C91.854 160.45 93.3146 160.235 93.6197 158.667C93.7388 158.05 93.4196 157.625 92.8374 157.625C92.2581 157.625 91.854 158.159 91.854 158.927ZM87.7662 163.406C85.6143 168.189 83.9755 174.266 82.9761 181.175L82.2208 186.397L84.5308 188.639C87.298 191.326 88.0593 190.498 87.0159 185.939C86.5316 183.823 86.5837 182.331 87.2299 179.908C87.7011 178.137 88.0913 174.972 88.0953 172.874C88.1003 170.017 88.4945 168.324 89.666 166.123C91.3858 162.889 91.7489 159.5 90.3763 159.5C89.9071 159.5 88.7326 161.258 87.7662 163.406ZM43.7081 161.063C43.7081 161.578 44.1302 162 44.6465 162C45.1617 162 45.5839 161.578 45.5839 161.063C45.5839 160.547 45.1617 160.125 44.6465 160.125C44.1302 160.125 43.7081 160.547 43.7081 161.063ZM58.4895 161.184C57.7421 161.931 58.0853 163.25 59.0277 163.25C59.5429 163.25 59.9651 162.845 59.9651 162.349C59.9651 161.305 59.0727 160.6 58.4895 161.184ZM412.608 163.443C412.614 164.065 412.337 164.4 411.993 164.188C411.649 163.975 411.372 163.044 411.378 162.119C411.385 160.804 411.519 160.642 411.993 161.375C412.326 161.891 412.603 162.821 412.608 163.443ZM157.507 165.125C157.507 166.154 157.832 166.416 158.914 166.262C159.688 166.152 160.322 165.641 160.322 165.125C160.322 164.609 159.688 164.098 158.914 163.988C157.832 163.834 157.507 164.096 157.507 165.125ZM103.464 167.754C102.235 169.507 102.063 176.619 103.259 176.221C104.835 175.696 106.352 167.533 105.028 166.714C104.708 166.516 104.003 166.984 103.464 167.754ZM107.586 169.025C106.457 170.153 106.73 171.375 108.111 171.375C108.932 171.375 109.362 170.958 109.362 170.162C109.362 168.623 108.524 168.087 107.586 169.025ZM51.0032 169.917C50.7741 170.146 50.586 170.87 50.586 171.525C50.586 173.228 52.722 172.669 52.9741 170.9C53.1672 169.552 51.9666 168.953 51.0032 169.917ZM38.4718 171.249C38.3017 171.523 38.3907 172.115 38.6689 172.565C39.3141 173.609 41.8322 172.877 41.8322 171.645C41.8322 170.698 39.018 170.365 38.4718 171.249ZM137.761 171.422C135.1 172.194 133.862 173.756 132.129 178.527C130.204 183.83 130.616 183.702 136.248 177.247C142.333 170.274 142.384 170.08 137.761 171.422ZM362.388 173.042C361.539 173.89 361.951 175.718 362.91 175.351C363.425 175.153 363.847 174.459 363.847 173.808C363.847 172.621 363.167 172.263 362.388 173.042ZM54.4937 173.664C54.0645 173.837 53.7124 174.398 53.7124 174.91C53.7124 176.205 55.8343 175.694 56.0954 174.337C56.3065 173.242 55.9314 173.084 54.4937 173.664ZM111.992 177.062C108.683 180.645 107.956 182.101 108.463 184.121C108.72 185.148 107.659 187.265 104.433 192.156C97.4754 202.71 96.3169 205.867 97.4864 211.086C98.0767 213.715 98.0096 214.022 96.575 215.304C94.8292 216.865 94.0569 219.374 94.9173 220.695C95.6716 221.854 97.9306 219.331 100.643 214.3C102.466 210.919 102.528 210.607 101.523 209.873C99.5913 208.461 103.051 200.483 108.995 192.64C112.445 188.089 113.284 185.546 111.822 184.084C111.35 183.613 112.184 182.207 114.673 179.273C116.608 176.993 118.016 174.846 117.803 174.502C116.933 173.094 114.781 174.042 111.992 177.062ZM95.7156 177.417C96.0208 178.985 97.4814 179.2 97.4814 177.677C97.4814 176.909 97.0772 176.375 96.498 176.375C95.9157 176.375 95.5966 176.8 95.7156 177.417ZM120.996 178.614C119.805 181.715 121.327 184.173 124.878 184.883C126.551 185.218 126.867 185.094 126.859 184.109C126.843 182.114 125.904 181.2 124.37 181.687C123.063 182.101 122.983 181.975 123.229 179.879C123.509 177.478 121.803 176.511 120.996 178.614ZM160.634 182.256C160.634 182.397 158.453 183.692 155.788 185.133C151.965 187.201 149.407 189.324 143.67 195.19C135.53 203.514 134.998 203.801 134.998 199.858C134.998 196.656 137.505 193.833 139.142 195.192C140.371 196.211 141.876 195.391 141.876 193.702C141.876 191.281 143.176 190.183 150.978 186.014C157.452 182.555 160.634 181.317 160.634 182.256ZM102.609 183.375C101.022 184.961 102.166 186.375 105.036 186.375C106.443 186.375 106.459 186.3 105.51 184.217C104.719 182.482 103.776 182.208 102.609 183.375ZM394.6 184.207C394.709 185.077 395.08 185.789 395.424 185.789C395.767 185.789 396.137 185.077 396.246 184.207C396.387 183.079 396.151 182.625 395.424 182.625C394.695 182.625 394.459 183.079 394.6 184.207ZM390.734 183.756C390.734 184.034 391.147 184.807 391.652 185.474C392.589 186.713 392.914 186.019 392.23 184.239C391.838 183.217 390.734 182.861 390.734 183.756ZM145.627 184.131C145.627 184.272 143.546 185.528 141.003 186.924C135.679 189.844 132.213 193.53 130.956 197.606C130.115 200.335 130.081 200.364 130.04 198.386C129.941 193.784 134.338 187.84 139.688 185.346C142.447 184.058 145.627 183.408 145.627 184.131ZM56.9638 187.125C55.7453 188.343 56.0284 190.75 57.391 190.75C58.4775 190.75 59.3088 189.211 59.3308 187.156C59.3418 186.163 57.9442 186.145 56.9638 187.125ZM184.234 190.923C196.179 195.075 200.576 201.149 201.752 215.125L202.251 221.063L203.444 218.875C204.102 217.672 204.949 215.012 205.329 212.965L206.02 209.242L207.556 214.215C212.582 230.483 205.363 256.347 196.226 254.804C193.053 254.269 190.332 255.588 186.583 259.48C181.482 264.776 177.014 266.429 174.702 263.875C172.929 261.917 169.932 262.294 164.772 265.125C159.667 267.925 159.383 268.008 159.383 266.688C159.383 266.172 158.961 265.75 158.446 265.75C157.313 265.75 157.186 267.413 158.289 267.783C160.096 268.39 151.754 269.739 146.566 269.679C129.173 269.478 114.192 256.067 112.643 239.311C112.402 236.702 112.082 235.772 111.502 235.994C110.392 236.42 109.801 233.354 110.322 229.877C110.9 226.026 113.908 220.348 119.258 213.007C123.952 206.566 125.009 204.266 123.822 203.079C122.554 201.812 123.773 195.125 125.27 195.125C125.406 195.125 125.967 194.952 126.517 194.741C127.369 194.414 127.423 194.606 126.881 196.032C125.467 199.75 127.062 205.751 130.015 207.818L131.418 208.801L130.37 214.533C126.421 236.105 131.056 248.728 145.618 256.058C154.007 260.281 167.006 261.688 178.141 259.58C184.687 258.34 185.027 258.182 182.969 257.329L181.23 256.609L184.696 254.222C200.435 243.388 201.161 218.561 186.033 208.534C172.195 199.361 156.286 202.501 146.193 216.398C142.97 220.836 142.506 220.205 144.05 213.488C145.916 205.365 146.8 203.68 148.582 204.847C150.993 206.426 151.88 205.625 151.882 201.863C151.89 191.512 169.145 185.677 184.234 190.923ZM396.865 192.329C396.339 193.483 396.331 194.095 396.836 194.6C398.013 195.776 399.488 194.688 399.488 192.645C399.488 190.272 397.891 190.08 396.865 192.329ZM86.8518 194.813C86.8518 196.016 87.1279 197 87.465 197C88.2404 197 88.9817 194.167 88.4365 193.286C87.6121 191.951 86.8518 192.683 86.8518 194.813ZM51.9616 194.625C50.8812 195.705 51.0382 197.625 52.2077 197.625C52.756 197.625 53.3512 197.063 53.5313 196.375C53.7454 195.555 54.3837 195.125 55.3851 195.125C56.2445 195.125 56.7437 194.852 56.5266 194.5C55.9884 193.631 52.871 193.716 51.9616 194.625ZM114.703 194.457C114.241 195.205 115.417 195.946 116.25 195.431C116.949 194.999 116.49 193.875 115.614 193.875C115.311 193.875 114.901 194.137 114.703 194.457ZM398.811 197.374C397.784 198.612 399.751 202.794 401.519 203.132C402.957 203.407 403.039 199.76 401.64 197.764C400.484 196.114 399.922 196.036 398.811 197.374ZM108.111 198.875C107.424 199.563 106.86 200.847 106.86 201.73V203.335L108.736 202C109.94 201.143 110.612 200.12 110.612 199.145C110.612 197.298 109.779 197.208 108.111 198.875ZM218.748 215.436C222.866 222.21 222.781 223.092 218.275 220.342C215.096 218.402 204.841 200.069 205.94 198.292C206.513 197.365 213.224 206.348 218.748 215.436ZM46.2091 205.438C46.2091 205.953 46.4903 206.375 46.8344 206.375C47.1786 206.375 47.4597 205.953 47.4597 205.438C47.4597 204.922 47.1786 204.5 46.8344 204.5C46.4903 204.5 46.2091 204.922 46.2091 205.438ZM48.9603 207.875C47.5487 209.286 46.8344 210.592 46.8344 211.762C46.8344 213.477 46.9325 213.426 50.586 209.813C54.9319 205.514 54.8079 205.75 52.712 205.75C51.6965 205.75 50.2879 206.548 48.9603 207.875ZM166.706 207.995C165.748 208.514 163.497 209.068 161.704 209.226L158.446 209.512L160.947 208.273C162.323 207.591 164.574 207.037 165.949 207.041L168.45 207.05L166.706 207.995ZM176.493 208.616C177.017 208.817 178.591 210.496 179.988 212.347C183.146 216.527 184.63 217.419 186.639 216.345C189.856 214.624 191.422 218.754 191.511 229.188C191.594 238.812 187.527 247 182.664 247H181.031L183.025 245.051C186.836 241.326 184.803 233.875 179.976 233.875C177.207 233.875 175.028 231.964 172.191 227.047C170.625 224.335 168.37 221.372 167.178 220.464C164.363 218.318 164.459 217.295 167.806 213.79C172.71 208.654 174.23 207.748 176.493 208.616ZM41.229 211.959C40.5087 213.305 40.4697 217.105 41.1509 219.5C42.0333 222.598 44.1572 216.092 43.3959 212.625C42.9207 210.464 42.1554 210.229 41.229 211.959ZM53.0871 212.178C50.7601 214.071 48.8293 219.976 50.7421 219.348C52.0827 218.908 54.3377 215.026 54.3377 213.158C54.3377 211.135 54.3537 211.147 53.0871 212.178ZM395.736 216.338C395.736 217.005 396.017 217.725 396.361 217.938C396.715 218.157 396.986 217.631 396.986 216.724C396.986 215.845 396.705 215.125 396.361 215.125C396.017 215.125 395.736 215.671 395.736 216.338ZM160.908 216.738C162.301 218.13 161.574 218.875 158.825 218.875C155.336 218.875 156.038 216.661 159.807 215.776C159.868 215.762 160.364 216.195 160.908 216.738ZM140.254 221.174C140.844 222.906 141.25 226.168 141.25 229.176C141.25 237.714 149.376 248.42 159.392 253.078C163.472 254.975 164.544 256.813 161.178 256.14C157.925 255.49 152.433 251.962 148.452 247.965C146.383 245.887 143.603 243.376 142.277 242.385C137.035 238.469 136.136 231.74 140.122 226.249C141.492 224.36 140.092 224.266 137.487 226.071C133.098 229.111 132.423 226.013 136.357 220.896C138.897 217.592 139.036 217.602 140.254 221.174ZM380.093 221.311C378.25 223.248 377.494 224.819 376.408 228.968C374.641 235.725 373.137 239.434 370.767 242.877C368.392 246.327 368.384 246.798 370.69 247.305C372.12 247.619 372.694 248.224 373.257 250.011C374.242 253.137 376.639 256.749 378.565 258.011C380.407 259.217 383.23 258.398 383.23 256.656C383.23 256.109 383.653 255.239 384.169 254.723C385.363 253.529 385.368 252.625 384.18 252.625C383.671 252.625 383.077 253.328 382.862 254.188C382.085 257.282 379.323 254.991 376.114 248.59L373.71 243.792L376.052 237.115C378.768 229.377 380.642 225.443 382.883 222.78C386.333 218.682 383.843 217.372 380.093 221.311ZM53.0741 221.078C52.6399 221.602 52.4519 222.199 52.6579 222.405C53.2992 223.045 54.9629 222.09 54.9629 221.082C54.9629 219.858 54.0886 219.856 53.0741 221.078ZM43.1648 224.671C38.7749 229.145 33.5436 237 34.9543 237C35.2984 237 35.5795 236.578 35.5795 236.063C35.5795 235.547 36.0867 235.125 36.707 235.125C37.3273 235.125 38.6889 234.211 39.7313 233.094C47.6838 224.572 50.8271 216.862 43.1648 224.671ZM100.351 225.173C98.6899 227.146 98.4498 228.037 99.1111 229.761C99.5993 231.033 101.858 231.054 101.858 229.788C101.858 229.258 102.409 227.746 103.082 226.427C104.957 222.754 103.104 221.903 100.351 225.173ZM162.319 226.026C165.682 228.952 157.4 236.484 152.771 234.708C151.32 234.151 151.755 233.25 153.475 233.25C156.041 233.25 158.785 231.462 159.745 229.166C160.938 226.313 160.972 226.375 158.17 226.375C155.708 226.375 154.3 225.513 155.784 224.915C157.816 224.097 160.655 224.579 162.319 226.026ZM89.2528 226.717C89.652 227.592 89.9781 228.98 89.9781 229.801C89.9781 231.96 91.1116 234.668 92.4682 235.75C93.7778 236.794 111.652 279.304 112.198 282.674C112.901 287.008 103.928 268.302 96.1428 249.203C93.7648 243.368 91.1426 237.884 90.3173 237.016C88.6966 235.311 88.3724 234.233 87.8242 228.719C87.445 224.916 88.0473 224.073 89.2528 226.717ZM118.137 227.584C117.368 229.021 117.288 230.75 117.99 230.75C118.959 230.75 119.991 229.234 119.991 227.813C119.991 226.06 119.018 225.94 118.137 227.584ZM172.514 234.491C172.514 234.84 172.098 235.125 171.589 235.125C170.761 235.125 168.111 230.924 168.154 229.681C168.179 228.959 172.514 233.741 172.514 234.491ZM403.614 251.911C402.06 269.631 401.823 270.751 399.342 272.077C397.46 273.085 395.982 271.58 397.361 270.057C398.03 269.317 398.273 268.309 398.054 267.178C397.836 266.056 398.147 264.737 398.928 263.466C399.926 261.845 400.015 261.218 399.43 259.936C398.871 258.71 398.935 257.729 399.729 255.339C400.284 253.668 401.155 248.738 401.665 244.382C402.537 236.93 404.542 230.062 404.984 233.012C405.084 233.68 404.468 242.184 403.614 251.911ZM51.6285 233.042C51.3994 233.271 51.2113 233.997 51.2113 234.656C51.2113 236.277 52.721 235.7 52.9741 233.982C53.1682 232.668 52.4819 232.189 51.6285 233.042ZM65.0683 235.429C64.6521 236.985 64.5101 237.088 64.1329 236.107C63.5797 234.667 64.262 232.295 65.0133 233.046C65.3134 233.346 65.3384 234.419 65.0683 235.429ZM419.34 234.865C418.744 235.46 417.549 234.496 417.994 233.777C418.258 233.35 418.607 233.361 419.056 233.81C419.424 234.178 419.552 234.653 419.34 234.865ZM166.261 237C165.893 237.688 165.277 238.25 164.892 238.25C164.507 238.25 164.701 237.688 165.324 237C165.946 236.313 166.562 235.75 166.692 235.75C166.824 235.75 166.629 236.313 166.261 237ZM47.6158 238.664C46.7424 239.016 46.5353 240.75 47.3666 240.75C49.0794 240.75 51.8876 239.292 51.1153 238.802C50.1989 238.222 48.8443 238.168 47.6158 238.664ZM174.39 241.966C174.39 245.666 169.868 247.927 166.23 246.046C163.86 244.822 163.902 244.166 166.404 243.294C167.515 242.907 169.199 241.742 170.146 240.705C172.274 238.376 174.39 239.005 174.39 241.966ZM90.0292 244.108C90.6744 245.527 91.2077 247.102 91.2147 247.608C91.2427 249.493 88.7946 246.083 88.2014 243.411C87.4711 240.124 88.3764 240.469 90.0292 244.108ZM44.3994 242.233C43.0818 243.82 45.0266 246.242 46.7594 245.172C47.3036 244.835 47.3346 244.253 46.8744 243.042C46.1681 241.185 45.4618 240.954 44.3994 242.233ZM49.0074 248.152C40.4787 259.209 33.7037 269.539 33.7037 271.485C33.7037 273.929 34.7031 273.691 36.1318 270.906C36.7931 269.617 41.0179 263.695 45.5198 257.746C53.5113 247.187 54.6868 245.173 54.2216 242.831C54.0575 242.007 52.6019 243.492 49.0074 248.152ZM82.4819 244.031C83.6194 245.896 84.2056 249.5 83.3713 249.5C81.9807 249.5 80.7501 248.118 81.0663 246.91C81.2944 246.038 81.1833 245.702 80.7541 245.967C79.0224 247.036 76.8554 244.435 78.164 242.858C79.3725 241.403 81.1773 241.893 82.4819 244.031ZM140.389 244.217C144.421 247.519 145.277 248.471 144.462 248.743C143.404 249.095 139.574 246.535 138.135 244.516C135.812 241.254 136.637 241.144 140.389 244.217ZM157.3 243.836C159.559 244.861 161.259 246.622 161.259 247.939C161.259 248.652 158.497 247.489 155.788 245.634C151.546 242.73 152.462 241.64 157.3 243.836ZM35.1453 246.019C33.6917 247.278 33.5326 247.679 34.2169 248.363C35.1263 249.271 37.4553 247.117 37.4553 245.368C37.4553 244.183 37.1742 244.262 35.1453 246.019ZM178.615 249.031C177.95 251.052 170.762 254.292 168.246 253.704C167.619 253.557 169.318 252.415 172.481 250.854C178.13 248.069 179.017 247.805 178.615 249.031ZM65.9257 253.704C65.7296 254.486 65.2594 255.125 64.8822 255.125C64.4761 255.125 64.35 254.552 64.5731 253.719C64.7802 252.945 64.9723 251.609 64.9983 250.75L65.0463 249.188L65.6646 250.735C66.0047 251.587 66.1218 252.923 65.9257 253.704ZM80.492 252.638C81.8326 253.043 81.9076 253.153 80.8752 253.196C80.1669 253.226 79.0414 252.807 78.3741 252.266C77.7058 251.725 77.5337 251.474 77.9909 251.708C78.4471 251.943 79.5726 252.361 80.492 252.638ZM88.6686 263.719C91.5278 272.852 94.355 282.549 94.355 283.227C94.355 283.482 92.1191 283.862 89.3859 284.073C80.2339 284.778 73.419 289.884 74.7645 295.027C75.2057 296.713 76.6333 296.783 77.1546 295.142C78.135 292.056 86.6667 287.086 89.8131 287.769C90.5514 287.93 89.673 288.647 87.1599 289.937C82.1637 292.501 76.2752 296.985 72.6886 300.955C70.0525 303.873 70.1215 303.242 72.8787 299.205C74.1823 297.296 73.9512 292.855 72.4705 291.375C71.186 290.091 67.4684 289.626 67.4684 290.75C67.4684 291.708 65.7996 291.493 64.6992 290.393C63.6557 289.35 63.2105 278.011 64.1889 277.407C67.8515 275.145 72.2725 281.697 69.2521 284.91C67.4734 286.803 68.5748 288.258 71.7652 288.23C76.6283 288.188 78.8903 283.126 76.7674 277.039C75.833 274.359 77.1656 272.707 79.3295 273.865C81.7906 275.181 81.4334 274.046 77.3266 267.502C72.2765 259.454 70.4807 258.581 70.7418 264.299C70.9459 268.778 69.2041 269.512 67.2973 265.75C64.6031 260.434 67.1982 257.642 73.6551 258.912C77.8309 259.733 80.9002 259.084 82.809 256.976C85.2161 254.318 86.0104 255.232 88.6686 263.719ZM200.534 259.264C193.218 269.467 178.189 278.933 169.431 278.855C166.51 278.829 168.012 277.545 172.763 276.004C179.582 273.793 185.693 270.034 191.536 264.456C199.711 256.653 204.308 254 200.534 259.264ZM99.2222 265.653C99.6633 265.933 99.8464 266.627 99.6283 267.195C99.1681 268.395 97.2513 267.681 96.637 266.08C96.2349 265.032 97.8285 264.769 99.2222 265.653ZM373.626 268.684C372.879 269.431 373.222 270.75 374.165 270.75C374.68 270.75 375.102 270.345 375.102 269.849C375.102 268.805 374.21 268.1 373.626 268.684ZM105.902 280.038C108.151 284.459 112.096 291.261 114.668 295.153C120.006 303.231 120.044 303.395 115.908 300.456C114.234 299.266 112.765 298.39 112.645 298.51C112.525 298.63 117.256 306.565 123.158 316.145C129.059 325.725 134.018 333.844 134.176 334.188C135.48 337.019 128.103 327.584 125.274 322.801C123.286 319.439 120.192 314.578 118.4 312C114.105 305.817 109.666 297 110.851 297C112.217 297 112.496 295.414 111.404 293.857C110.519 292.593 110.338 292.55 109.682 293.447C108.955 294.44 101.572 278.182 101.22 274.813C100.757 270.391 101.306 271.004 105.902 280.038ZM119.991 276.338C119.991 278.414 120.917 279.373 121.487 277.889C121.834 276.985 120.95 274.5 120.282 274.5C120.122 274.5 119.991 275.327 119.991 276.338ZM401.363 280.718C401.363 289.608 398.216 300.831 392.57 312.078C389.272 318.648 379.66 333.436 378.967 333.007C378.729 332.86 376.867 330.312 374.829 327.344L371.124 321.948L372.566 318.693C376.408 310.018 382.688 294.053 384.839 287.491C387.521 279.308 386.711 280.081 395.424 277.407C401.509 275.539 401.363 275.457 401.363 280.718ZM43.4149 277.183C43.1468 277.8 43.1038 278.479 43.3179 278.694C43.9532 279.328 44.4654 278.437 44.1723 277.205C43.9141 276.113 43.8801 276.112 43.4149 277.183ZM220.035 279.5C220.035 280.333 220.452 280.75 221.285 280.75C222.119 280.75 222.536 280.333 222.536 279.5C222.536 278.667 222.119 278.25 221.285 278.25C220.452 278.25 220.035 278.667 220.035 279.5ZM394.652 279.656C392.716 282.132 392.601 284.551 394.346 286.087C396.522 288.003 396.771 287.987 397.191 285.906C397.381 284.961 397.727 283.412 397.96 282.465C398.628 279.752 396.194 277.685 394.652 279.656ZM280.348 280.792C280.121 281.158 280.086 281.608 280.269 281.792C280.717 282.239 281.936 281.451 281.936 280.713C281.936 279.914 280.857 279.968 280.348 280.792ZM286.456 285.867C286.844 287.026 288.189 287.218 288.189 286.115C288.189 285.57 287.744 285.125 287.199 285.125C286.655 285.125 286.32 285.459 286.456 285.867ZM225.975 288.82L229.102 289.28L227.226 290.072C224.909 291.05 219.549 290.533 218.219 289.203C217.121 288.106 220.121 287.958 225.975 288.82ZM261.58 289.491C284.866 295.444 298.103 319.379 298.396 356.063C298.629 385.24 273.201 399.585 231.995 393.522C218.313 391.509 201.872 384.111 204.376 381.095C206.79 378.188 212.07 376.903 211.106 379.458C210.258 381.7 211.123 383.958 213.4 385.449C214.864 386.409 226.189 387.932 226.862 387.26C227.945 386.177 224.242 384.42 219.834 383.926C213.796 383.249 211.059 381.412 214.72 380.493C216.607 380.02 216.645 379.535 215.041 376.393C212.967 372.327 209.207 372.789 204.847 377.644C200.876 382.065 197.83 381.213 185.219 372.157C168.069 359.842 150.568 343.749 137.465 328.246C130.526 320.036 124.715 312.625 125.217 312.625C125.382 312.625 126.875 313.209 128.537 313.922C145.973 321.405 168.31 318.285 184.372 306.121C190.696 301.333 191.944 301.455 188.545 306.531C177.342 323.259 184.672 345.532 203.515 352.019C215.918 356.288 227.756 356.66 235.141 353.012C242.334 349.459 246.787 349.787 249.5 354.071L250.761 356.063L250.359 353.463C249.873 350.321 250.734 348.446 255.415 342.456C259.151 337.675 261.273 332.676 261.714 327.625C262.097 323.216 261.396 323.988 256.605 333.248C254.738 336.858 252.971 340.169 252.679 340.604C252.288 341.189 251.477 340.757 249.577 338.95C243.434 333.109 225.51 330.845 213.141 334.349L209.06 335.505L209.287 333.561C209.432 332.313 209.153 331.319 208.507 330.782C207.012 329.543 206.572 330.474 207.322 333.284C208.591 338.035 206.577 336.591 204.225 331.063C195.458 310.461 209.735 284.444 223.886 295.233L225.985 296.833L227.575 295.099C232.23 290.021 241.431 291.925 259.939 301.798C270.691 307.533 271.123 308.13 274.753 322.313C279.421 340.545 279.022 352.949 273.402 364.331C269.812 371.6 261.569 378.84 256.85 378.869C252.76 378.894 235.041 384.989 235.041 386.371C235.041 388.072 255.491 383.485 261.928 380.34C272.048 375.394 282.562 359.22 282.562 348.596C282.562 344.187 276.441 312.891 274.964 309.752C272.075 303.608 259.332 295.898 245.045 291.65C241.548 290.61 240.652 290.136 241.518 289.785C246.116 287.923 254.941 287.794 261.58 289.491ZM59.1458 291.844C58.9887 292.445 58.8596 291.953 58.8596 290.75C58.8596 289.547 58.9887 289.055 59.1458 289.656C59.3028 290.258 59.3028 291.242 59.1458 291.844ZM390.448 292.201C389.535 294.066 387.803 299.609 386.6 304.52C384.225 314.206 383.494 316.02 380.431 319.813C374.884 326.683 375.018 329.826 380.642 324.772C384.861 320.98 387.467 315.669 388.167 309.433C388.538 306.127 389.415 303.115 391.076 299.444C394.694 291.448 394.111 284.718 390.448 292.201ZM199.401 291.944C199.401 293.491 192.408 297.718 187.426 299.184L185.958 299.616L187.492 298.464C192.656 294.592 199.401 290.899 199.401 291.944ZM395.483 292.559C394.708 293.415 394.465 294.583 394.604 296.778L394.798 299.813L396.205 297.181C398.451 292.981 397.958 289.825 395.483 292.559ZM94.4951 293.094C95.9197 294.718 97.5984 298.25 96.9462 298.25C96.634 298.25 95.6286 297.266 94.7102 296.063C92.7924 293.549 91.8079 293.378 89.3459 295.13C87.261 296.614 83.2782 297.605 83.9835 296.464C84.6808 295.335 90.8015 292.395 93.1635 292.054C93.3686 292.024 93.9679 292.492 94.4951 293.094ZM368.016 294.292C367.43 294.878 367.495 297 368.099 297C368.878 297 370.1 295.588 370.1 294.688C370.1 293.836 368.731 293.576 368.016 294.292ZM263.455 295.067C264.357 296.526 274.43 302.76 275.328 302.416C276.832 301.838 276.519 301.058 274.014 299.149C270.546 296.504 262.396 293.354 263.455 295.067ZM90.8565 300.837C93.8118 302.183 95.0373 306.369 93.4006 309.531C92.056 312.131 91.6449 311.825 92.1301 308.586C92.6293 305.261 91.899 303.629 89.3139 302.292C86.3646 300.768 87.7782 299.434 90.8565 300.837ZM392.006 301.334C391.195 302.85 391.17 304.934 391.957 305.421C392.618 305.829 394.485 302.63 394.485 301.094C394.485 299.724 392.78 299.889 392.006 301.334ZM60.2983 306.198C61.1646 311.529 63.4576 318.25 64.409 318.25C64.7882 318.25 64.7812 318.68 64.39 319.411C63.4506 321.164 64.6501 324.612 67.4153 328.109C71.9083 333.79 72.5566 336.241 69.9374 337.642C67.0712 339.176 64.342 337.603 64.342 334.418C64.342 333.391 63.2335 329.259 61.8789 325.237C58.6105 315.533 56.8318 302.84 58.5065 301.167C59.2208 300.452 59.4819 301.185 60.2983 306.198ZM86.2265 303.526C86.2265 304.021 85.9204 304.615 85.5472 304.846C84.6638 305.392 83.4583 304.187 84.0045 303.304C84.6168 302.313 86.2265 302.473 86.2265 303.526ZM309.448 304.142C309.448 304.721 309.983 305.125 310.751 305.125C312.275 305.125 312.06 303.665 310.491 303.36C309.874 303.241 309.448 303.56 309.448 304.142ZM33.1465 305.98C32.5892 306.652 32.5772 307.003 33.1025 307.327C34.1219 307.957 35.3874 306.558 34.5531 305.724C34.1009 305.272 33.6697 305.35 33.1465 305.98ZM73.7911 309.68C73.2809 310.19 73.0958 310.12 73.0958 309.417C73.0958 308.174 73.9362 307.334 74.2473 308.266C74.3794 308.661 74.1743 309.297 73.7911 309.68ZM86.3266 309.252C85.9984 311.079 84.2477 312.7 82.822 312.496C80.8902 312.22 81.2323 310.092 83.4133 308.818C85.6603 307.505 86.6147 307.647 86.3266 309.252ZM294.226 310.464C294.808 311.98 293.996 312.253 293.22 310.804C292.736 309.9 292.726 309.5 293.189 309.5C293.556 309.5 294.023 309.934 294.226 310.464ZM78.0069 314.955C79.6507 318.026 84.6678 318.012 88.0233 314.927L89.5079 313.563L89.0387 315.125C87.457 320.389 81.2494 326.532 79.2965 324.765C74.9436 320.828 73.0408 314.478 75.4248 311.845C76.4793 310.681 76.5113 310.687 76.9015 312.145C77.1206 312.965 77.6188 314.229 78.0069 314.955ZM360.826 315.088C358.941 317.432 358.189 320.125 359.417 320.125C360.056 320.125 363.263 316.207 364.404 314.031C365.711 311.54 363.045 312.328 360.826 315.088ZM377.679 314.821C375.553 317.242 373.587 320.695 374.064 321.171C375.146 322.252 378.747 318.284 379.976 314.656C380.867 312.025 380.086 312.081 377.679 314.821ZM150.473 314.269C151.247 314.476 151.88 314.894 151.88 315.198C151.88 316.116 148.962 315.817 148.128 314.813C147.249 313.754 147.946 313.592 150.473 314.269ZM72.1654 321.219C73.523 323.883 74.7335 326.273 74.8556 326.531C74.9766 326.789 74.3273 327 73.413 327C71.0539 327 68.0936 323.886 68.0936 321.403C68.0936 320.253 67.7115 319.314 67.1562 319.101C65.6086 318.508 67.0902 316.707 69.3632 316.417C69.5463 316.394 70.8068 318.555 72.1654 321.219ZM94.9763 322.011C91.6849 331.778 85.2411 337.835 79.7537 336.321C75.2377 335.074 75.1047 331.375 79.5756 331.375C82.1828 331.375 89.3339 329.503 91.0936 328.359C92.079 327.719 91.4228 325.75 90.2243 325.75C88.9267 325.75 89.1338 325.117 91.5318 321.746C96.3049 315.035 97.3023 315.112 94.9763 322.011ZM325.831 317.125C325.418 317.537 325.08 318.241 325.08 318.688C325.08 319.707 326.463 319.743 327.456 318.75C328.45 317.757 328.414 316.375 327.394 316.375C326.947 316.375 326.243 316.713 325.831 317.125ZM45.2877 320.094C43.9472 322.684 44.0352 323.453 45.5779 322.628C47.6428 321.523 49.0744 318.25 47.4917 318.25C46.7394 318.25 45.861 318.985 45.2877 320.094ZM142.784 321.779C141.941 322.688 141.25 323.65 141.25 323.915C141.25 324.181 141.079 324.843 140.871 325.386C140.301 326.87 142.165 326.619 143.968 324.969C145.887 323.211 146.734 320.125 145.297 320.125C144.758 320.125 143.627 320.869 142.784 321.779ZM321.468 321.098C320.703 321.633 320.078 322.645 320.078 323.347V324.623L322.11 323.341C324.23 322.003 325.16 320.125 323.702 320.125C323.237 320.125 322.232 320.563 321.468 321.098ZM313.617 321.167C312.824 321.959 313.205 322.625 314.451 322.625C315.145 322.625 315.701 322.208 315.701 321.688C315.701 320.736 314.379 320.405 313.617 321.167ZM369.238 327.341C369.957 328.43 369.939 328.826 369.118 329.998C367.781 331.907 365.27 331.81 364.359 329.815C362.906 326.624 367.295 324.399 369.238 327.341ZM352.123 329.289C351.694 329.462 351.342 330.023 351.342 330.535C351.342 331.83 353.464 331.319 353.725 329.962C353.936 328.867 353.561 328.709 352.123 329.289ZM96.2269 333.884C95.5606 335.492 92.8974 337.625 91.5558 337.625C90.7795 337.625 93.1735 333.911 94.7502 332.671C96.8261 331.04 97.2583 331.395 96.2269 333.884ZM335.502 334.292C334.739 335.053 335.071 336.375 336.023 336.375C336.543 336.375 336.96 335.819 336.96 335.125C336.96 333.88 336.294 333.499 335.502 334.292ZM227.538 337.625C229.083 339.169 229.214 342.501 227.751 343.062C227.053 343.33 226.234 342.863 225.253 341.636C222.289 337.934 224.305 334.394 227.538 337.625ZM341.135 338.753C339.828 340.197 339.774 342 341.038 342C342.284 342 343.655 339.067 342.806 338.218C342.393 337.805 341.831 337.984 341.135 338.753ZM347.09 338.375C345.928 339.536 346.194 340.125 347.881 340.125C348.781 340.125 349.7 339.606 350.091 338.875C350.875 337.41 348.458 337.007 347.09 338.375ZM215.904 339.239C217.323 342.938 216.088 344.483 212.729 343.206C208.671 341.664 208.375 340.577 211.703 339.439C215.643 338.09 215.466 338.099 215.904 339.239ZM236.052 339.656C235.839 340.43 235.484 342.149 235.262 343.476C234.932 345.452 234.482 346.047 232.782 346.757C229.358 348.187 229.03 347.759 231.562 345.167C233.787 342.889 233.888 342.633 232.939 341.684C231.231 339.978 232.232 338.25 234.926 338.25C236.191 338.25 236.375 338.479 236.052 339.656ZM132.769 343.962C134.357 345.728 135.517 347.314 135.345 347.487C134.783 348.048 130.643 344.481 129.666 342.593C128.219 339.795 129.548 340.382 132.769 343.962ZM330.43 342.449C329.951 343.694 331.126 346.22 332.533 346.973C333.228 347.344 334.533 348.909 335.437 350.449C337.255 353.55 338.21 353.587 338.214 350.557C338.217 348.295 331.05 340.831 330.43 342.449ZM224.276 345.266C226.085 346.793 226.174 347 225.018 347C222.354 347 220.062 345.164 220.045 343.017C220.034 341.721 220.156 341.786 224.276 345.266ZM289.112 345.302C288.883 346.521 288.968 350.064 289.3 353.176C290.089 360.563 289.624 362.7 286.109 367.821C284.502 370.163 283.187 372.743 283.187 373.554C283.187 376.053 274.466 382.765 265.993 386.787C261.081 389.119 260.536 390.125 264.184 390.125C269.716 390.125 286.939 377.829 286.939 373.879C286.939 373.003 288.183 370.162 289.704 367.565C293.378 361.29 293.572 359.864 291.904 351.316C290.355 343.382 289.726 342.027 289.112 345.302ZM240.356 345.75C240.576 346.106 240.037 346.375 239.106 346.375C238.173 346.375 237.635 346.106 237.855 345.75C238.067 345.406 238.63 345.125 239.106 345.125C239.581 345.125 240.143 345.406 240.356 345.75ZM143.081 359.272C144.617 361.224 144.744 362.102 143.415 361.592C142.294 361.162 140.309 357.625 141.189 357.625C141.517 357.625 142.368 358.366 143.081 359.272ZM340.202 363.852C339.853 374.039 338.664 375.009 336.169 367.141C334.03 360.4 334.004 359.5 335.946 359.5C336.763 359.5 337.791 359.069 338.228 358.542C339.88 356.552 340.403 357.96 340.202 363.852ZM89.591 359.158C89.1148 360.397 89.8191 361.375 91.1887 361.375C92.5673 361.375 93.9919 359.805 93.4336 358.902C92.8314 357.927 89.9901 358.116 89.591 359.158ZM153.795 360.547C157.813 364.176 159.294 367.869 155.731 365.374C153.61 363.889 153.358 364.798 155.214 367.232C156.89 369.427 161.333 371.993 163.489 372.01C166.2 372.031 166.565 373.083 164.334 374.443C161.231 376.334 160.781 376.175 156.116 371.548C152.079 367.543 151.88 367.208 151.88 364.401C151.88 362.782 151.606 360.735 151.27 359.853C150.465 357.736 150.777 357.822 153.795 360.547ZM324.708 361.917C324.261 364.712 322.709 366.396 319.453 367.621C313.362 369.912 311.281 372.433 316.015 371.784C322.243 370.931 327.804 366.225 327.459 362.101C327.175 358.703 325.243 358.574 324.708 361.917ZM99.7744 367.417C99.1851 368.005 99.2542 370.75 99.8574 370.75C100.741 370.75 101.858 369.284 101.858 368.125C101.858 367.022 100.598 366.594 99.7744 367.417ZM154.815 374.168C156.565 375.706 155.944 376.295 153.788 375.142C152.537 374.473 151.584 372.625 152.49 372.625C152.804 372.625 153.85 373.319 154.815 374.168ZM106.036 375.532C105.508 376.061 105.475 380.297 105.989 381.636C106.734 383.577 107.486 382.576 107.476 379.656C107.467 376.64 106.809 374.759 106.036 375.532ZM225.037 380.416C225.037 381.488 226.88 382.58 228.007 382.176C229.231 381.737 228.93 381.016 227.196 380.225C225.165 379.3 225.037 379.312 225.037 380.416ZM324.768 382.01C319.496 384.662 317.808 386.973 321.778 386.101C324.237 385.561 327.361 383.579 328.189 382.033C329.093 380.345 328.09 380.338 324.768 382.01ZM166.887 386.955C166.887 387.689 168.672 389.5 169.396 389.5C170.481 389.5 170.626 388.328 169.662 387.363C168.579 386.282 166.887 386.033 166.887 386.955ZM160.009 390.784C160.009 392.427 167.79 396.563 172.085 397.204C174.088 397.502 174.437 397.391 174.267 396.51C174.055 395.407 160.009 389.766 160.009 390.784ZM213.13 397.353C219.007 401.779 220.865 403.736 218.315 402.816C216.095 402.015 209.027 397.094 206.938 394.894C203.238 390.999 206.312 392.219 213.13 397.353ZM129.028 396.779C127.342 398.597 127.026 400.125 128.336 400.125C129.401 400.125 130.97 398.358 131.527 396.531C132.113 394.609 130.931 394.726 129.028 396.779ZM136.429 397.781C134.632 399.744 134.003 402 135.254 402C136.287 402 137.729 400.075 138.414 397.781C138.644 397.008 138.582 396.375 138.275 396.375C137.968 396.375 137.138 397.008 136.429 397.781ZM224.153 400.392C226.377 402.789 231.919 404.049 245.045 405.142C254.941 405.966 254.811 405.978 258.458 403.892C261.695 402.041 261.737 402.036 269.021 402.426C280.307 403.03 281.129 404.752 271.617 407.863C265.331 409.919 265.054 409.911 265.054 407.67C265.054 404.797 262.84 403.118 260.776 404.426C260.078 404.868 260.076 405.18 260.765 406.284C263.081 409.991 246.261 413.869 243.674 410.224C242.538 408.624 240.936 407.884 236.733 407.02C232.288 406.106 224.34 402.162 220.973 399.199C218.547 397.065 218.528 397.018 220.348 397.655C221.379 398.016 223.092 399.248 224.153 400.392ZM291.941 401.375C291.941 401.719 291.536 402 291.039 402C290.544 402 289.965 401.719 289.753 401.375C289.54 401.031 289.945 400.75 290.653 400.75C291.362 400.75 291.941 401.031 291.941 401.375ZM213.782 408.927C221.905 413.124 222.106 413.274 219.097 412.91C212.984 412.172 196.738 407.829 199.401 407.645C199.917 407.609 201.182 406.888 202.215 406.043C204.652 404.046 204.043 403.894 213.782 408.927ZM219.409 421.063C219.409 421.578 219.832 422 220.348 422C220.863 422 221.285 421.578 221.285 421.063C221.285 420.547 220.863 420.125 220.348 420.125C219.832 420.125 219.409 420.547 219.409 421.063Z" fill="#228B22"/>
</svg>
